<svg id="eGTHBVsChdz1" xmlns="http://www.w3.org/2000/svg" xmlns:xlink="http://www.w3.org/1999/xlink" viewBox="0 0 4006 1449" shape-rendering="geometricPrecision" text-rendering="geometricPrecision" project-id="f5e6a74286f74d1fb609990a1084c448" export-id="5cb690fdc3eb48f9a976ad8fddefbbcb" cached="false"><g transform="matrix(1.33333 0 0-1.33333-2323.537561 1619.127911)"><g transform="translate(1742.95 129.099)"><path d="M0,0v162.707h113.195v-27.237h-82.748v-42.281h80.867v-26.978h-80.867v-66.211L0,0Z" fill="#296972"/></g><g clip-path="url(#eGTHBVsChdz71)"><g><g transform="translate(1878.91 129.099)"><path d="M0,0v115.043h29.053v-15.11c8.981,11.803,23.702,17.444,44.162,16.99v-30.673c-4.799,2.334-10.084,3.437-15.823,3.437-7.75,0-14.397-3.048-19.974-9.274-5.577-6.225-8.365-14.656-8.365-25.356v-55.057L0,0Z" fill="#296972"/></g><g transform="translate(2020.93 127.672)"><path d="M0,0c-15.207,0-27.366,4.993-36.51,14.915s-13.683,23.93-13.683,42.088v59.467h29.052v-56.679c0-11.348,2.497-19.973,7.555-25.94c5.026-5.966,11.641-8.949,19.844-8.949c8.69,0,15.629,3.113,20.817,9.403c5.188,6.291,7.782,14.981,7.782,26.135v56.03h29.052v-115.043h-28.825v14.202h-.454C25.778,5.253,14.234,0,0,0" fill="#296972"/></g><g transform="translate(2148.26 129.099)"><path d="M0,0L-46.692,115.043h30.674l32.295-85.99l32.068,85.99h30.674L32.554,0L0,0Z" fill="#296972"/></g><g transform="translate(2270.89 162.367)"><path d="M0,0c6.258-6.55,13.975-9.792,23.119-9.792s16.861,3.242,23.119,9.792c6.29,6.485,9.403,14.526,9.403,24.124c0,9.792-3.113,17.898-9.403,24.448C39.98,55.057,32.263,58.3,23.119,58.3s-16.861-3.243-23.119-9.728c-6.29-6.55-9.436-14.656-9.436-24.448C-9.436,14.526,-6.29,6.485,0,0m15.921-35.148c-15.337,0-28.21,5.706-38.586,17.12-10.376,11.349-15.564,25.421-15.564,42.152c0,16.926,5.123,31.063,15.435,42.411C-12.483,77.949,0.422,83.656,15.921,83.656c16.86,0,30.122-5.772,39.72-17.185v15.304h29.052v-115.043h-29.052v15.11c-9.76-11.284-22.989-16.99-39.72-16.99" fill="#296972"/></g><g transform="translate(2382.56 129.099)"><path d="M0,0v174.315h29.052v-101.359h19.066l35.311,42.087h36.51L71.821,59.272L119.939,0h-35.797L48.118,45.33h-19.066v-45.33L0,0Z" fill="#296972"/></g><g transform="translate(2667.97 215.349)"><path d="M0,0h68.805v-38.391C64.006,-54.474,54.668,-66.86,40.79,-75.55c-13.877-8.689-30.187-13.034-48.929-13.034-23.216,0-42.833,8.171-58.786,24.383-15.952,16.277-23.929,36.056-23.929,59.272c0,23.281,7.977,42.996,23.929,59.273c15.953,16.277,35.57,24.448,58.786,24.448c16.116,0,30.48-3.891,43.125-11.673c12.613-7.717,22.438-18.352,29.41-31.841L37.191,20.687c-4.507,8.366-10.635,14.98-18.482,19.844-7.814,4.864-16.763,7.328-26.848,7.328-14.558,0-26.847-5.123-36.834-15.434s-14.98-22.762-14.98-37.354c0-14.526,4.993-26.977,14.98-37.288s22.276-15.434,36.834-15.434c22.309,0,37.354,8.56,45.103,25.81v2.075h-36.964L0,0Z" fill="#296972"/></g><g transform="translate(2758.37 129.099)"><path d="M0,0v115.043h29.052v-14.202c9.436,10.7,21.466,16.082,36.024,16.082c16.278,0,29.118-6.809,38.586-20.492c10.538,13.683,24.772,20.492,42.768,20.492c14.851,0,26.75-4.993,35.667-14.915s13.359-24.059,13.359-42.476v-59.532h-29.052v57.197c0,11.608-2.4,20.363-7.199,26.264-4.799,5.837-11.251,8.82-19.292,8.82-8.528,0-15.208-3.113-20.104-9.339-4.896-6.16-7.328-14.785-7.328-25.745v-57.197h-29.052v57.197c0,11.414-2.465,20.168-7.426,26.134-4.961,5.967-11.316,8.95-19.065,8.95-8.366,0-15.11-3.243-20.233-9.663-5.091-6.42-7.653-15.304-7.653-26.588v-56.03L0,0Z" fill="#296972"/></g><g transform="translate(3017.63 162.367)"><path d="M0,0c6.291-6.55,13.975-9.792,23.119-9.792s16.861,3.242,23.021,9.792c6.161,6.485,9.274,14.526,9.274,24.124c0,9.792-3.113,17.898-9.274,24.448C39.98,55.057,32.263,58.3,23.119,58.3s-16.828-3.243-23.119-9.728c-6.258-6.55-9.403-14.656-9.403-24.448C-9.403,14.526,-6.258,6.485,0,0m30.35-35.148c-16.115,0-29.377,5.771-39.753,17.25v-15.37h-29.053v174.315h29.053v-74.576C0.811,77.884,14.073,83.656,30.35,83.656c15.466,0,28.371-5.707,38.682-17.121C79.343,55.187,84.467,41.05,84.467,24.124c0-16.731-5.188-30.803-15.564-42.152-10.376-11.414-23.216-17.12-38.553-17.12" fill="#296972"/></g><g transform="translate(3125.58 129.099)"><path d="M0,0v162.707h30.479v-67.184h78.047v67.184h30.479v-162.707h-30.479v66.471h-78.047v-66.471L0,0Z" fill="#296972"/></g><g transform="translate(3442.85 215.349)"><path d="M0,0h68.74v-38.391c-4.799-16.083-14.137-28.469-27.95-37.159-13.878-8.689-30.22-13.034-48.961-13.034-23.216,0-42.866,8.171-58.819,24.383-15.952,16.277-23.929,36.056-23.929,59.272c0,23.281,7.977,42.996,23.929,59.273c15.953,16.277,35.603,24.448,58.819,24.448c16.147,0,30.479-3.891,43.125-11.673c12.645-7.717,22.438-18.352,29.377-31.841L37.159,20.687c-4.475,8.366-10.636,14.98-18.482,19.844-7.847,4.864-16.796,7.328-26.848,7.328-14.526,0-26.848-5.123-36.835-15.434-9.986-10.311-14.98-22.762-14.98-37.354c0-14.526,4.994-26.977,14.98-37.288c9.987-10.311,22.309-15.434,36.835-15.434c22.308,0,37.353,8.56,45.07,25.81v2.075h-36.899L0,0Z" fill="#296972"/></g><g transform="translate(3533.25 129.099)"><path d="M0,0v115.043h29.053v-15.11c8.949,11.803,23.735,17.444,44.162,16.99v-30.673c-4.799,2.334-10.052,3.437-15.823,3.437-7.717,0-14.397-3.048-19.974-9.274-5.577-6.225-8.365-14.656-8.365-25.356v-55.057L0,0Z" fill="#296972"/></g><g transform="translate(3679.62 153.288)"><path d="M0,0c8.82-.195,16.277,2.983,22.438,9.403c6.096,6.42,9.144,14.332,9.144,23.8c0,9.598-3.048,17.639-9.144,24.059C16.277,63.682,8.82,66.86,0,66.665c-9.014.195-16.537-2.983-22.633-9.403-6.16-6.42-9.208-14.461-9.208-24.059c0-9.468,3.048-17.38,9.208-23.8C-16.537,2.983,-9.014,-0.195,0,0m43.579-9.533C31.582,-21.335,17.055,-27.237,0,-27.237s-31.582,5.966-43.708,17.834c-12.063,11.802-18.094,26.134-18.094,42.865c0,16.861,6.031,31.323,18.094,43.32C-31.582,88.779,-17.055,94.81,0,94.81c16.861,0,31.387-6.031,43.449-18.028c12.127-11.997,18.158-26.459,18.158-43.32c0-16.925-6.031-31.257-18.028-42.995" fill="#296972"/></g><g transform="translate(3807.95 124.884)"><path d="M0,0c-12.127,0-22.957,2.918-32.554,8.625-9.598,5.707-16.213,13.618-19.779,23.735l25.161,7.911c4.799-11.348,14.008-16.99,27.626-16.99c7.004,0,12.451,1.427,16.472,4.28c4.085,2.853,6.096,6.809,6.096,11.738c0,4.669-2.594,7.782-7.718,9.338-5.058,1.492-12.256,2.659-21.465,3.437-9.208.778-16.536,2.27-21.984,4.41-13.164,5.577-19.714,15.11-19.714,28.598c0,10.376,4.475,19.196,13.424,26.394c9.014,7.198,20.039,10.83,33.008,10.83c12.257,0,22.503-2.918,30.674-8.625c8.236-5.707,13.683-13.294,16.277-22.762L20.882,84.175c-1.362,4.928-3.956,8.949-7.653,11.932-3.696,3.048-8.495,4.539-14.396,4.539-5.772,0-10.506-1.426-14.332-4.409-3.761-2.919-5.642-6.421-5.642-10.441c0-5.123,2.789-8.625,8.495-10.441c5.642-1.881,13.23-3.242,22.762-4.085c9.533-.844,16.667-2.335,21.466-4.54c13.034-5.447,19.519-14.656,19.519-27.626c0-11.802-4.734-21.27-14.267-28.404C27.302,3.567,15.045,0,0,0" fill="#296972"/></g><g transform="translate(3921.83 124.884)"><path d="M0,0c-12.127,0-22.957,2.918-32.554,8.625-9.598,5.707-16.213,13.618-19.779,23.735l25.161,7.911c4.799-11.348,14.007-16.99,27.626-16.99c7.004,0,12.451,1.427,16.472,4.28c4.085,2.853,6.095,6.809,6.095,11.738c0,4.669-2.594,7.782-7.717,9.338-5.058,1.492-12.256,2.659-21.465,3.437-9.208.778-16.537,2.27-21.984,4.41-13.164,5.577-19.714,15.11-19.714,28.598c0,10.376,4.475,19.196,13.424,26.394c9.014,7.198,20.038,10.83,33.008,10.83c12.257,0,22.503-2.918,30.674-8.625c8.236-5.707,13.683-13.294,16.277-22.762L20.881,84.175c-1.361,4.928-3.955,8.949-7.652,11.932-3.696,3.048-8.495,4.539-14.396,4.539-5.772,0-10.506-1.426-14.332-4.409-3.761-2.919-5.642-6.421-5.642-10.441c0-5.123,2.788-8.625,8.495-10.441c5.642-1.881,13.229-3.242,22.762-4.085c9.533-.844,16.667-2.335,21.466-4.54c13.034-5.447,19.519-14.656,19.519-27.626c0-11.802-4.734-21.27-14.267-28.404C27.302,3.567,15.045,0,0,0" fill="#296972"/></g><g transform="translate(3992.97 129.099)"><path d="M0,0v174.315h29.052v-73.215c8.95,10.246,20.623,15.37,34.89,15.37c15.174,0,27.301-4.994,36.445-14.916s13.748-23.929,13.748-42.022v-59.532h-29.052v57.197c0,11.284-2.53,19.844-7.588,25.681-4.993,5.771-11.673,8.689-19.844,8.689-8.69,0-15.629-3.112-20.817-9.273-5.188-6.226-7.782-14.786-7.782-25.81v-56.484L0,0Z" fill="#296972"/></g><g transform="translate(4164.3 162.367)"><path d="M0,0c6.291-6.55,14.007-9.792,23.151-9.792s16.861,3.242,23.151,9.792c6.226,6.485,9.404,14.526,9.404,24.124c0,9.792-3.178,17.898-9.404,24.448-6.29,6.485-14.007,9.728-23.151,9.728s-16.86-3.243-23.151-9.728c-6.226-6.55-9.403-14.656-9.403-24.448C-9.403,14.526,-6.226,6.485,0,0m15.953-35.148c-15.37,0-28.21,5.706-38.585,17.12-10.376,11.349-15.564,25.421-15.564,42.152c0,16.926,5.123,31.063,15.434,42.411C-12.451,77.949,0.454,83.656,15.953,83.656c16.861,0,30.155-5.772,39.753-17.185v15.304h29.052v-115.043h-29.052v15.11c-9.793-11.284-23.022-16.99-39.753-16.99" fill="#296972"/></g><g transform="translate(4276.49 129.099)"><path d="M0,0v115.043h29.053v-14.202c9.143,10.7,20.751,16.082,34.888,16.082c15.175,0,27.302-4.993,36.446-14.98c9.144-10.051,13.748-24.189,13.748-42.411v-59.532h-29.052v57.197c0,11.414-2.53,20.103-7.588,26.005-4.994,5.901-11.673,8.819-19.844,8.819-8.69,0-15.629-3.177-20.817-9.533-5.188-6.355-7.781-15.109-7.781-26.264v-56.224L0,0Z" fill="#296972"/></g><g transform="translate(4448.02 162.367)"><path d="M0,0c6.226-6.55,13.877-9.792,23.021-9.792s16.861,3.242,23.151,9.792c6.226,6.485,9.404,14.526,9.404,24.124c0,9.792-3.178,17.898-9.404,24.448-6.29,6.485-14.007,9.728-23.151,9.728s-16.795-3.243-23.021-9.728c-6.161-6.55-9.273-14.656-9.273-24.448C-9.273,14.526,-6.161,6.485,0,0m15.823-35.148c-15.369,0-28.209,5.706-38.585,17.12-10.376,11.349-15.564,25.421-15.564,42.152c0,16.926,5.123,31.063,15.434,42.411C-12.581,77.949,0.324,83.656,15.823,83.656c17.055,0,30.285-5.772,39.753-17.185v74.576h29.052v-174.315h-29.052v15.37c-9.468-11.479-22.698-17.25-39.753-17.25" fill="#296972"/></g><g transform="translate(4613.97 225.076)"><path d="M0,0c-8.366,0-15.499-2.399-21.4-7.328-5.837-4.864-9.793-11.543-11.803-20.103h65.303c-2.204,8.819-6.031,15.628-11.543,20.362C15.11,-2.335,8.236,0,0,0m-.195,22.568c16.991,0,30.933-5.383,41.698-16.148c10.766-10.765,16.278-25.421,16.602-43.838c0-3.697-.065-6.68-.195-8.82h-91.567c1.362-9.143,5.188-16.212,11.348-21.27c6.226-5.058,13.554-7.523,22.114-7.523c13.619,0,24.059,4.669,31.322,14.137l17.899-14.85c-5.382-7.328-12.516-12.97-21.336-17.12-8.884-4.086-18.092-6.161-27.69-6.161-17.186,0-31.582,5.901-43.19,17.574-11.673,11.673-17.444,26.005-17.444,42.866c0,17.379,5.771,31.906,17.314,43.578c11.544,11.738,25.875,17.575,43.125,17.575" fill="#296972"/></g><g transform="translate(4729.72 128.645)"><path d="M0,0c-11.608,0-20.816,3.372-27.626,10.246-6.874,6.809-10.246,16.148-10.246,28.08v136.443h29.053v-131.061c0-5.771,1.556-9.986,4.669-12.775c3.047-2.853,6.939-4.215,11.608-4.215c1.556,0,3.891.324,6.938.908L17.445,2.529C10.959,0.843,5.123,0,0,0" fill="#296972"/></g><g transform="translate(1889.06 663.57)"><path d="M0,0c-12.439,4.962-22.06,11.788-28.908,20.5-6.826,8.689-11.962,17.552-15.364,26.567-3.423,8.993-5.46,17.531-6.067,25.614-.629,8.083-.629,14.28,0,18.636c3.099,8.711,8.863,14.605,17.249,17.726c8.386,3.099,13.197,3.099,14.432,0c1.257-2.492,1.257-6.544,0-12.135-1.235-5.591-.303-10.554,2.796-14.909c8.711-5.591,22.84-8.711,42.408-9.318c19.568-.629,42.083.607,67.566,3.727c30.446,52.203,63.688,103.3,99.725,153.314c36.037,50.015,71.771,94.59,107.179,133.747-29.818-4.984-58.877-9.795-87.134-14.454-28.279-4.659-54.673-8.386-79.225-11.181-24.552-2.796-46.591-4.508-66.159-5.136-19.567-.607-35.885.628-48.93,3.749-20.5,4.334-34.954,12.568-43.34,24.682-8.386,12.113-13.219,23.923-14.454,35.43-1.257,11.485.477,20.803,5.136,27.954c4.659,7.129,9.773,8.213,15.364,3.251c6.219-2.493,16.794-3.251,31.703-2.319s32.613,3.099,53.113,6.523c20.5,3.402,43.015,7.606,67.567,12.568c24.552,4.984,49.537,10.272,75.021,15.862c25.484,5.591,50.339,11.009,74.566,16.296c24.227,5.266,46.287,9.795,66.18,13.522c33.545,6.826,68.173,12.569,103.907,17.228c35.712,4.681,70.21,7.151,103.452,7.476c33.22.303,64.294-2.037,93.202-6.999c28.886-4.985,53.265-13.674,73.158-26.091c12.417-7.455,22.515-18.181,30.294-32.158c7.758-13.977,13.5-28.128,17.228-42.408c3.727-14.302,5.742-27.499,6.067-39.613.304-12.113-.802-20.348-3.272-24.682-8.711-14.93-18.159-24.097-28.409-27.499-10.272-3.424-17.574-2.644-21.908,2.319-3.121,4.356-3.901,8.386-2.341,12.113c1.561,3.728,3.728,7.151,6.523,10.272c2.795,3.099,4.984,6.523,6.522,10.25c1.561,3.727.781,7.758-2.318,12.113-7.455,13.652-21.432,23.447-41.931,29.341-20.522,5.916-45.204,9.015-74.111,9.34-28.886.303-61.044-1.56-96.453-5.591-35.409-4.052-72.074-8.863-109.975-14.454c9.318-9.318,11.789-18.961,7.455-28.886-29.818-29.211-61.044-66.505-93.658-111.838-32.613-45.377-64.164-93.527-94.589-144.473c27.954,4.984,53.113,9.015,75.477,12.135c22.363,3.099,39.157,4.031,50.339,2.795c18.007-1.863,32.613-6.696,43.795-14.453c11.181-7.78,19.416-16.014,24.703-24.704c5.266-8.711,8.062-16.924,8.387-24.682.303-7.78-1.106-12.59-4.205-14.454-8.082-3.727-20.954-8.083-38.68-13.045-17.705-4.984-38.356-9.795-61.976-14.454s-49.234-8.841-76.885-12.568c-27.651-3.728-55.453-6.545-83.407-8.408-29.211-54.652-53.287-104.839-72.226-150.476-18.961-45.68-29.991-80.309-33.09-103.929c0-6.848.477-11.658,1.409-14.432.931-2.817,2.167-4.681,3.727-5.591c1.538-.953,2.925-1.257,4.182-.953c1.235.303,2.167.173,2.796-.477c1.863-1.214,2.643-3.381,2.34-6.501-.325-3.12-1.409-6.198-3.272-9.318-1.864-3.121-4.659-5.764-8.386-7.931-3.728-2.167-8.387-2.947-13.978-2.341-5.59.651-12.113,4.378-19.567,11.182-7.455,6.848-14.454,15.862-20.977,27.044s-11.962,24.227-16.296,39.136c-4.355,14.909-5.916,30.771-4.659,47.544c1.864,25.44,8.062,53.568,18.636,84.339c10.554,30.728,23.902,62.886,40.068,96.453C28.257,-9.015,12.417,-4.984,0,0" fill="#296972"/></g><g transform="translate(2643.95 642.117)"><path d="M0,0c-12.438,2.492-22.84,7.303-31.226,14.454-8.387,7.129-14.909,15.689-19.568,25.635-4.659,9.925-7.931,20.955-9.795,33.09-1.864,12.114-2.492,24.682-1.864,37.727-18.636-21.128-38.984-44.878-61.044-71.293-22.06-26.416-42.711-53.113-61.975-80.136-19.265-27.044-35.409-52.831-48.454-77.361-13.046-24.531-19.893-45.507-20.5-62.886-.628-5.591-5.136-8.712-13.522-9.318-8.386-.607-17.553,1.083-27.499,5.114-9.947,4.03-18.961,10.228-27.022,18.636-8.062,8.408-12.114,18.766-12.114,31.205c0,11.831,3.727,28.604,11.182,50.36c7.454,21.714,16.924,45.637,28.431,71.728c11.485,26.112,24.075,52.658,37.749,79.702c13.652,27.022,26.545,52.029,38.659,75.021c12.113,22.97,22.515,42.083,31.226,57.317c8.69,15.212,13.977,24.053,15.841,26.545c1.863,3.121,6.37,2.947,13.522-.455c7.129-3.424,14.583-8.386,22.363-14.909c7.758-6.522,14.757-13.847,20.976-21.908c6.198-8.083,9.318-14.909,9.318-20.5c0-3.727-4.355-13.37-13.045-28.886-8.711-15.537-18.636-36.362-29.839-62.452c12.438,15.515,27.65,31.984,45.68,49.407c18.008,17.379,35.083,33.545,51.249,48.454c6.219,22.363,14.909,41.931,26.112,58.704c3.728,5.59,9.925,7.931,18.637,6.999c8.689-.932,17.53-3.727,26.545-8.386s16.794-10.727,23.317-18.181c6.523-7.455,9.773-14.909,9.773-22.364-5.591-18.636-11.182-36.21-16.772-52.657-5.591-16.47-10.25-31.682-13.977-45.659-3.728-13.977-5.916-27.196-6.523-39.612-.629-12.439,1.235-23.621,5.591-33.545c2.47-6.848,2.947-11.984,1.387-15.386C21.28,0.78,13.652,-0.607,0,0" fill="#296972"/></g><g transform="translate(2993.44 526.573)"><path d="M0,0c.607-1.864,2.47-3.25,5.591-4.204c3.099-.91,6.349-1.56,9.773-1.864c3.402-.303,6.674-.606,9.795-.91c3.099-.346,4.659-1.43,4.659-3.293.607-3.728-.477-8.062-3.272-13.046-2.796-4.984-6.22-9.751-10.25-14.432-4.052-4.637-8.386-8.538-13.046-11.658-4.658-3.077-8.841-4.941-12.59-5.591-6.826-.607-13.977,1.863-21.431,7.454-7.455,5.591-14.432,13.522-20.955,23.794-6.523,10.228-11.658,22.667-15.386,37.272-3.727,14.562-5.287,30.295-4.659,47.067v6.501c-18.029-25.484-33.87-46.59-47.522-63.363-13.673-16.772-25.809-29.991-36.362-39.612-10.574-9.622-19.893-16.469-27.954-20.5-8.083-4.031-15.537-6.068-22.363-6.068-8.712,0-18.181,2.514-28.431,7.455-10.25,4.984-19.72,11.962-28.431,20.976-8.711,9.015-15.992,19.72-21.886,32.158-5.916,12.439-8.863,26.091-8.863,41c.606,14.909,3.878,31.833,9.794,50.794c5.894,18.94,13.349,38.681,22.363,59.181c8.994,20.499,19.092,40.999,30.295,61.499c11.182,20.499,22.363,39.764,33.545,57.793c11.182,18.008,22.038,34.022,32.613,47.999c10.554,13.977,19.871,24.985,27.954,33.068c5.591,3.121,12.439,2.796,20.522-.931c8.061-3.728,15.364-9.319,21.886-16.773c6.523-7.454,11.486-15.992,14.909-25.614c3.424-9.643,3.272-19.113-.455-28.431-1.864-4.984-6.696-14.302-14.454-27.954-7.779-13.674-16.772-29.688-27.022-47.999-10.25-18.332-20.825-37.597-31.681-57.793-10.879-20.197-20.5-39.136-28.886-56.84-8.408-17.705-14.627-32.787-18.658-45.182-4.031-12.439-4.182-19.893-.455-22.363c3.727-2.514,10.25-1.431,19.568,3.25c9.318,4.637,20.976,13.522,34.953,26.567c13.977,13.046,30.121,30.577,48.454,52.637c18.333,22.038,38.356,48.93,60.112,80.612c14.281,24.833,28.583,50.317,42.885,76.429c14.281,26.091,29.493,49.993,45.659,71.749c8.689,3.727,17.249,2.947,25.635-2.318c8.386-5.288,15.364-12.287,20.955-20.977c5.591-8.711,9.643-18.029,12.135-27.954c2.47-9.947,1.863-18.029-1.885-24.227-2.471-5.591-7.13-15.234-13.977-28.908-6.827-13.673-14.432-29.514-22.819-47.522-8.386-18.029-16.946-36.817-25.635-56.385-8.712-19.568-16.621-37.9-23.772-54.976s-12.742-31.855-16.773-44.25C0.13,10.878,-1.257,3.12,0,0" fill="#296972"/></g><g transform="translate(3462.21 842.499)"><path d="M0,0c.607-24.855-3.424-51.878-12.092-81.089-8.711-29.211-20.37-58.4-34.975-87.589-14.606-29.211-31.075-57.317-49.364-84.361-18.333-27.001-37.142-50.751-56.385-71.294-19.286-20.5-37.749-36.796-55.475-48.931-17.683-12.092-33.068-17.813-46.114-17.206-6.847.607-16.187,3.554-27.975,8.842-11.81,5.287-23.62,13.218-35.431,23.75-11.81,10.575-21.886,23.62-30.272,39.136-8.387,15.559-12.287,33.891-11.659,54.998.607,31.681,7.455,64.143,20.5,97.384c13.045,33.242,28.106,63.991,45.203,92.271c17.076,28.257,34.174,52.029,51.293,71.294c17.076,19.264,30.554,30.749,40.523,34.476c5.59,1.864,12.265.629,20.023-3.727c7.757-4.356,14.778-10.25,20.976-17.704c6.198-7.455,10.878-15.234,13.999-23.295c3.077-8.083,2.774-14.909-.954-20.5-12.438-17.401-26.09-35.105-40.999-53.135-14.909-18.029-28.258-37.9-40.09-59.635-9.317-17.401-17.552-34.954-24.66-52.658-7.151-17.704-12.612-33.718-16.339-47.999-3.727-14.302-4.984-26.264-3.727-35.885c1.235-9.622,5.591-14.736,13.045-15.342c8.061-.65,19.113,4.637,33.112,15.819c13.955,11.181,28.864,25.96,44.726,44.271c15.819,18.311,31.812,39.591,47.977,63.84c16.166,24.227,30.598,49.06,43.34,74.544s22.364,50.794,28.908,75.953c6.501,25.181,8.538,47.999,6.067,68.52c0,1.235-3.12,1.235-9.317,0-6.241-1.257-9.319-1.257-9.319,0c0,6.198.911,11.312,2.774,15.364c1.864,4.031,4.334,8.235,7.455,12.59c4.984,5.591,11.008,7.91,18.159,6.978s14.302-4.659,21.453-11.182c7.151-6.522,13.176-15.537,18.159-27.022C-2.47,29.969,0,16.144,0,0" fill="#296972"/></g><g transform="translate(4068.92 748.365)"><path d="M0,0C12.439,28.583,25.527,57.945,39.179,88.088c13.652,30.121,27.348,59.311,40.956,87.59c13.696,28.279,27.218,55.301,40.566,81.089c13.349,25.765,25.918,48.605,37.793,68.498-17.423-19.893-37.446-42.256-60.156-67.09-22.71-24.877-46.72-51.119-72.204-78.77s-52.051-55.757-79.702-84.339c-27.651-28.583-55.172-56.234-82.475-82.953c19.849-3.098,42.559-5.59,68.043-7.454C-42.56,2.795,-19.893,1.235,0,0m-66.136-199.428c3.727,18.636,8.667,38.226,14.908,58.704c6.198,20.499,13.046,41.628,20.5,63.384-23.62,1.864-47.24,4.789-70.86,8.841-23.62,4.031-47.197,9.167-70.818,15.386c21.107-26.719,40.87-52.809,59.203-78.293c18.289-25.462,34.021-48.129,47.067-68.022M159.36,-10.25c-4.94-12.438-13.781-25.159-26.524-38.204-12.741-13.045-32.504-22.992-59.202-29.818-12.395-31.703-23.576-61.975-33.545-90.861-9.924-28.908-18.159-55.302-24.703-79.226-6.501-23.923-11.182-44.856-13.956-62.886-2.817-18.029-2.643-32.028.434-41.953c0-8.711.65-14.735,1.863-18.159c1.257-3.424,2.817-5.591,4.681-6.544c1.864-.91,3.727-1.257,5.591-.91c1.864.303,3.424-.174,4.637-1.431c2.514-3.077,2.817-8.364.954-15.819-1.864-7.454-9.015-11.788-21.454-13.045-4.984,0-11.008,2.167-18.159,6.501-7.151,4.377-14.129,10.878-20.976,19.59-6.848,8.711-13.219,19.243-19.113,31.681-5.894,12.439-10.098,26.697-12.569,42.863-6.197,11.832-13.955,26.741-23.317,44.727-9.318,18.029-20.326,37.445-33.068,58.248-12.742,20.804-27.174,42.733-43.34,65.704-16.165,22.991-34.151,45.68-54.044,68.043-37.272-32.938-74.415-63.384-111.383-91.317-36.969-27.954-72.681-52.051-107.18-72.247-34.455-20.197-66.96-36.016-97.384-47.544-30.468-11.485-57.469-17.509-81.089-18.159-13.045-.607-26.221.346-39.612,2.817-13.349,2.47-25.138,6.674-35.409,12.568-10.228,5.894-18.636,13.652-25.137,23.317-6.544,9.621-9.188,20.933-7.931,33.978c1.257,14.953,4.03,23.317,8.364,25.181c4.378,1.863,8.408.607,12.135-3.727c0-3.728.607-7.325,1.864-10.705c1.257-3.424,7.151-7.628,17.683-12.612c22.406-1.864,48.497,3.294,78.315,15.385c29.817,12.136,61.499,28.431,95.044,48.931s68.173,44.272,103.929,71.294c35.711,27.022,70.99,54.825,105.792,83.407-25.484,9.318-46.764,17.553-63.84,24.704-17.119,7.129-31.421,13.652-42.906,19.568-11.485,5.894-20.5,11.333-27.001,16.317-6.544,4.963-11.658,9.622-15.385,13.977-5.591,11.789-7.151,23.772-4.681,35.886c2.514,12.113,7.801,22.515,15.862,31.204c8.062,8.712,18.637,14.758,31.682,18.181c13.045,3.403,27.954,2.016,44.727-4.182c9.924-4.984,21.583-12.742,34.975-23.317c13.348-10.553,26.393-21.431,39.135-32.613c12.742-11.181,24.227-21.28,34.499-30.294c10.228-9.015,17.206-13.826,20.933-14.432l37.315,33.545c38.486,34.78,74.545,68.346,108.09,100.656c33.545,32.288,66.006,64.143,97.384,95.521s62.626,62.756,93.658,94.134c31.118,31.356,63.969,63.84,98.814,97.384c2.514,1.236,7.108,1.236,13.956,0c6.848-1.235,13.695-3.727,20.543-7.454s12.222-8.386,16.295-13.977c4.075-5.591,4.768-12.113,2.341-19.568c0-.628-.347-.932-.953-.932c8.668-4.355,16.642-11.181,23.75-20.499c7.194-9.318,9.448-16.47,7.021-21.432-9.362-18.029-20.804-41.173-34.499-69.43-13.695-28.301-28.431-59.354-44.293-93.203-15.776-33.87-32.158-69.43-48.887-106.724C133.27,74.566,117.494,37.901,102.585,1.864c14.216.628,26.957,2.795,38.139,6.522c4.334,2.492,8.582,4.811,12.655,7c3.988,2.167,7.108,2.947,9.275,2.318c2.167-.606,3.121-2.947,2.774-6.977-.26-4.053-2.34-11.03-6.068-20.977" fill="#296972"/></g><g transform="translate(4568.46 1055.93)"><path d="M0,0c-45.983-85.748-84.469-157.193-115.543-214.359-31.075-57.165-53.742-104.708-68.044-142.587c19.243,8.061,40.566,20.348,63.839,36.817c23.317,16.447,44.9,33.696,64.793,51.726c19.85,18.007,36.319,35.083,49.364,51.249c13.089,16.144,18.68,28.583,16.816,37.272-1.257,3.727-2.037,7-2.34,9.795-.347,2.795,1.993,4.811,6.977,6.068c2.471.606,6.675,0,12.569-1.864s11.355-5.764,16.339-11.658c4.941-5.916,8.841-14.151,11.615-24.704c2.817-10.575,2.948-24.227.477-41-3.12-18.636-10.402-36.817-21.886-54.521-11.529-17.704-25.788-34.347-42.864-49.862-17.119-15.538-36.839-30.143-59.202-43.795-22.363-13.674-45.983-25.787-70.817-36.362c2.47-8.712,8.365-20.197,17.683-34.477c9.361-14.302,19.719-28.258,31.247-41.91c11.486-13.695,22.841-25.05,34.022-34.021c11.182-9.015,19.85-12.612,26.091-10.749c3.727,1.257,6.371,2.167,7.931,2.817c1.517.607,2.774,1.561,3.727,2.774.911,1.257,1.994,2.947,3.251,5.158c1.213,2.167,3.424,5.417,6.501,9.751c6.848-10.531,9.968-20.326,9.318-29.341-.607-9.015-3.554-16.772-8.842-23.317-5.287-6.501-11.961-11.788-20.022-15.819-8.105-4.03-16.166-6.067-24.228-6.067-11.181,0-24.096,2.817-38.702,8.408-14.605,5.59-29.947,13.955-46.113,25.137-16.166,11.181-32.765,24.877-49.884,40.999-17.076,16.166-33.372,34.499-48.931,54.998-6.805-6.847-12.872-15.212-18.16-25.137-5.287-9.968-10.228-20.196-14.908-30.771-4.637-10.575-8.538-20.673-11.658-30.295-3.121-9.621-5.592-17.552-7.455-23.75c0-2.47-1.257-4.81-3.728-7.021-2.47-2.167-5.59-2.904-9.317-2.297-26.698,3.727-40.696,24.834-41.91,63.363c0,23.62,5.591,53.568,16.772,89.93c11.182,36.34,25.744,75.325,43.774,116.952c18.029,41.628,37.749,83.733,59.202,126.293c21.41,42.537,42.386,82.02,62.886,118.36c20.5,36.341,38.832,67.242,54.998,92.726c16.166,25.462,27.954,41.931,35.408,49.407c3.121,4.334,9.319,4.789,18.637,1.387c9.318-3.424,18.333-8.711,27.044-15.841c8.668-7.151,15.819-15.385,21.41-24.703C3.771,15.841,4.377,7.454,0,0" fill="#296972"/></g></g><clipPath id="eGTHBVsChdz71"><path d="M0,1346.457h6462.992v-1346.457L0,0v1346.457Z"/></clipPath></g></g></svg>
